# xmcd
#
# Track frame offsets:
#	150
#	24077
#	46701
#	69062
#	90607
#	112647
#	140973
#	162852
#	185156
#	209057
#
# Disc length: 3071 seconds
#
# Revision: 2
# Processed by: cddbd v1.5.2PL0 Copyright (c) Steve Scherf et al.
# Submitted via: EZCDAudioConverter 8.0.2.1
#
DISCID=7f0bfd0a
DTITLE=Trường Vũ - Nhớ người yêu
DYEAR=2000
DGENRE=blues
TTITLE0=Nhớ người yêu
TTITLE1=Đoạn buồn cho tôi
TTITLE2=Phương trời xứ lạ
TTITLE3=Tình lãng tử
TTITLE4=Sầu lẻ bóng
TTITLE5=Chim sáo ngày xưa
TTITLE6=Tình đẹp mùa chôm chôm
TTITLE7=Tình yêu cách trở
TTITLE8=Giận hờn 2
TTITLE9=Chở người
EXTD=
EXTT0=
EXTT1=
EXTT2=
EXTT3=
EXTT4=
EXTT5=
EXTT6=
EXTT7=
EXTT8=
EXTT9=
PLAYORDER=
